:FULLY-SPECIFIED
:FORCE-ALL-JOINTS-BE-3DOF
:DEGREES
1529
root -5.81938 15.3348 19.5597 564.364 6.16091 541.798
lfemur -47.656 10.0662 -24.5559
ltibia 90.8406 0 0
lfoot -10.7756 19.4115 0
ltoes -24.1208 0 0
rfemur -43.6119 1.11553 15.19
rtibia 64.5169 0 0
rfoot -20.0202 -4.59026 0
rtoes -27.3821 0 0
lowerback 19.559 1.00836 3.83146
upperback -1.18792 2.84888 3.24987
thorax -12.3109 1.28308 0.569922
lowerneck -3.35184 8.81347 4.00416
upperneck 3.91722 12.4382 -11.069
head 2.66154 6.08586 -3.44968
lclavicle 2.11316e-14 -8.29568e-15 0
lhumerus 59.6378 -69.2575 44.253
lradius 121.493 0 0
lwrist 16.4839 0 0
lhand -19.7645 36.0557 0
lfingers 7.12502 0 0
lthumb 6.56703 -274.112 0
rclavicle 2.11316e-14 -8.29568e-15 0
rhumerus -39.3011 49.9906 -79.8066
rradius 110.571 0 0
rwrist -43.8298 0 0
rhand 10.7718 -31.5267 0
rfingers 7.12502 0 0
rthumb 35.0874 -54.1884 0
1530
root -5.91151 15.3393 19.5686 564.769 5.91043 541.422
lfemur -47.5743 10.0444 -24.5349
ltibia 90.7379 0 0
lfoot -10.802 19.3964 0
ltoes -24.1526 0 0
rfemur -43.6209 1.10501 15.1666
rtibia 64.4854 0 0
rfoot -19.9703 -4.56412 0
rtoes -27.3419 0 0
lowerback 19.5523 1.00317 3.79946
upperback -1.1878 2.83456 3.25153
thorax -12.3056 1.278 0.594086
lowerneck -3.35293 8.77558 3.97452
upperneck 3.9251 12.3865 -11.0344
head 2.66362 6.06009 -3.43613
lclavicle 2.10351e-14 -8.25391e-15 0
lhumerus 59.4905 -69.1846 44.3736
lradius 121.326 0 0
lwrist 16.4124 0 0
lhand -19.7868 36.0695 0
lfingers 7.12502 0 0
lthumb 6.54552 -273.132 0
rclavicle 2.10351e-14 -8.25391e-15 0
rhumerus -39.2265 49.9148 -79.8031
rradius 110.604 0 0
rwrist -43.8428 0 0
rhand 10.9439 -31.4993 0
rfingers 7.12502 0 0
rthumb 35.2126 -53.9345 0
1531
root -6.00364 15.3439 19.5774 565.034 5.68652 540.956
lfemur -47.4569 10.0178 -24.5047
ltibia 90.6009 0 0
lfoot -10.8313 19.3906 0
ltoes -24.1882 0 0
rfemur -43.6445 1.08056 15.1433
rtibia 64.4611 0 0
rfoot -19.9139 -4.53599 0
rtoes -27.2826 0 0
lowerback 19.5435 0.998584 3.76184
upperback -1.18828 2.8195 3.25082
thorax -12.3 1.27283 0.619054
lowerneck -3.3542 8.72875 3.93833
upperneck 3.93366 12.3226 -10.9905
head 2.6659 6.02831 -3.41933
lclavicle 2.08997e-14 -8.19691e-15 0
lhumerus 59.2747 -69.0838 44.5242
lradius 121.153 0 0
lwrist 16.3694 0 0
lhand -19.8061 36.0867 0
lfingers 7.12502 0 0
lthumb 6.52686 -272.206 0
rclavicle 2.08997e-14 -8.19691e-15 0
rhumerus -39.0974 49.8078 -79.7667
rradius 110.619 0 0
rwrist -43.8194 0 0
rhand 11.0794 -31.4716 0
rfingers 7.12502 0 0
rthumb 35.305 -53.695 0
1532
root -6.09576 15.3485 19.5863 565.18 5.48003 540.393
lfemur -47.3038 9.98603 -24.4651
ltibia 90.4285 0 0
lfoot -10.864 19.3929 0
ltoes -24.2283 0 0
rfemur -43.6819 1.04268 15.1196
rtibia 64.4425 0 0
rfoot -19.8498 -4.50519 0
rtoes -27.204 0 0
lowerback 19.5327 0.99441 3.71798
upperback -1.1893 2.80331 3.24793
thorax -12.2939 1.26741 0.645507
lowerneck -3.35567 8.67238 3.89509
upperneck 3.94309 12.2456 -10.937
head 2.66843 5.9901 -3.39906
lclavicle 2.07248e-14 -8.12434e-15 0
lhumerus 58.99 -68.9547 44.7067
lradius 120.969 0 0
lwrist 16.3509 0 0
lhand -19.8233 36.1074 0
lfingers 7.12502 0 0
lthumb 6.51024 -271.3 0
rclavicle 2.07248e-14 -8.12434e-15 0
rhumerus -38.915 49.6692 -79.6993
rradius 110.617 0 0
rwrist -43.7622 0 0
rhand 11.1857 -31.4425 0
rfingers 7.12502 0 0
rthumb 35.3704 -53.4615 0
